<svg width="20" height="20" viewBox="0 0 20 20" fill="none" xmlns="http://www.w3.org/2000/svg">
<path d="M17.633 9.46V19.66H10.754V9.46H17.633ZM8.575 9.46V19.66H1.707V9.46H8.575ZM14.68 0C14.952 0 15.214 0.034 15.474 0.11C16.921 0.536 17.764 1.707 17.572 3.073C17.451 3.944 16.892 4.825 15.87 5.493L15.644 5.633H19.32V8.706H0V5.633H3.906C2.812 4.95 2.174 4.046 2.048 3.123C1.863 1.757 2.7 0.589 4.147 0.16C4.397 0.086 4.669 0.04 4.94 0.04C7.372 0.04 8.768 3.102 9.373 4.59L9.429 4.729H10.182C10.704 3.324 12.17 0 14.68 0ZM4.94 1.968C4.85 1.968 4.77 1.978 4.69 2.008C4.318 2.088 3.92 2.35 3.976 2.852C4.051 3.525 5.081 4.539 7.31 4.669C6.687 3.354 5.794 1.969 4.94 1.969V1.968ZM14.692 1.968C13.839 1.968 12.945 3.354 12.322 4.669C14.552 4.539 15.582 3.525 15.656 2.852C15.712 2.35 15.315 2.089 14.943 2.008C14.863 1.978 14.783 1.968 14.693 1.968H14.692Z" fill="url(#paint0_linear_1001_232)"/>
<defs>
<linearGradient id="paint0_linear_1001_232" x1="9.66" y1="0" x2="9.66" y2="19.66" gradientUnits="userSpaceOnUse">
<stop stop-color="#96AEFF"/>
<stop offset="0.1312" stop-color="#93ACFC"/>
<stop offset="0.32312" stop-color="#7797FE"/>
<stop offset="0.60548" stop-color="#6388FE"/>
<stop offset="1" stop-color="#597EF7"/>
</linearGradient>
</defs>
</svg>
