<svg width="20" height="22" viewBox="0 0 20 22" fill="none" xmlns="http://www.w3.org/2000/svg">
<path d="M7.92504 0.168104C12.479 -0.771896 16.9 2.3251 17.8 7.0881H17.825C18.711 7.0881 19.429 7.8381 19.429 8.7641V12.1561C19.427 12.8331 19.037 13.4431 18.439 13.7021L18.389 13.9621C17.629 17.5871 14.539 19.9321 10.71 20.2521C10.534 20.8261 10.027 21.2211 9.45004 21.2321C8.70204 21.2491 8.08504 20.6281 8.07004 19.8471C8.05504 19.0661 8.64804 18.4201 9.39504 18.4041L9.53204 18.4141C10.027 18.4791 10.456 18.8181 10.648 19.3081L10.928 19.2811C14.192 18.9191 16.792 16.9141 17.449 13.7941C17.036 13.7051 16.672 13.4521 16.435 13.0861L16.334 13.3921C15.728 15.1051 14.552 16.5381 13.015 17.4221H12.852C12.838 17.3881 12.838 17.3501 12.852 17.3171L12.844 17.2711L12.852 17.2251L13.036 17.0371C14.451 15.5331 14.536 14.0731 14.368 11.9861C14.133 10.3491 13.518 8.7981 12.577 7.4671L12.539 7.4261C12.511 7.4031 12.476 7.3901 12.439 7.3881L12.392 7.3951C12.332 7.4131 12.286 7.4651 12.276 7.5331L12.251 7.7691C12.208 8.0831 12.128 8.3911 12.013 8.6851L11.939 8.8511C11.596 9.5531 10.949 10.0451 10.197 10.1651L9.38204 10.3221C8.30204 10.5291 7.23504 10.7391 6.11304 10.9911C5.17504 11.2351 4.56104 12.1751 4.68504 13.1781L4.74204 13.4861C5.05704 15.0161 5.83004 16.4041 6.95204 17.4481H6.87704C6.78904 17.4481 6.78904 17.5141 6.78904 17.5141C6.76104 17.5541 6.73604 17.5991 6.71404 17.6441L6.44804 17.5161C4.77904 16.6671 3.47804 15.1831 2.81804 13.3611L2.71204 13.4881C2.41304 13.8081 1.99904 13.9881 1.56604 13.9771L1.42204 13.9691C0.618043 13.8861 -0.00595709 13.1741 4.29059e-05 12.3131V9.0401C-0.00395709 8.2561 0.520043 7.5771 1.25304 7.4161L1.30104 7.1301C1.94504 3.6251 4.55904 0.864104 7.92504 0.169104V0.168104ZM12.478 13.7531C12.533 13.7011 12.618 13.7011 12.674 13.7531L12.712 13.7771C12.757 13.8151 12.774 13.8781 12.752 13.9371L12.692 14.1051C12.339 14.9871 11.531 15.6151 10.578 15.7311H10.264V15.7051C9.34304 15.6901 8.49804 15.1921 8.03704 14.3951L8.01204 14.3551C7.98704 14.2971 8.00204 14.2291 8.05004 14.1851C8.11204 14.1311 8.20604 14.1371 8.26004 14.1981L8.43904 14.3081C8.86604 14.5441 9.35504 14.6531 9.84504 14.6181L10.067 14.6281C10.216 14.6301 10.364 14.6281 10.513 14.6181L10.718 14.5861C12.108 14.3501 12.478 13.7531 12.478 13.7531ZM10.742 1.8431C6.90204 1.1581 3.26004 3.8581 2.60604 7.8731L2.78104 8.0561C3.51304 5.9771 5.08004 4.3401 7.06804 3.5741C10.814 2.1321 14.968 4.1391 16.348 8.0561V8.1361C16.393 8.0431 16.448 7.9551 16.51 7.8731L16.46 7.6031C15.87 4.6461 13.608 2.3531 10.742 1.8431Z" fill="url(#paint0_linear_1001_225)"/>
<defs>
<linearGradient id="paint0_linear_1001_225" x1="9.71452" y1="0" x2="9.71452" y2="21.2324" gradientUnits="userSpaceOnUse">
<stop stop-color="#96AEFF"/>
<stop offset="0.1312" stop-color="#93ACFC"/>
<stop offset="0.32312" stop-color="#7797FE"/>
<stop offset="0.60548" stop-color="#6388FE"/>
<stop offset="1" stop-color="#597EF7"/>
</linearGradient>
</defs>
</svg>
