<svg width="25" height="25" viewBox="0 0 25 25" fill="none" xmlns="http://www.w3.org/2000/svg">
<circle cx="12.5" cy="12.5" r="12.5" fill="white" fill-opacity="0.7"/>
<path d="M12.9817 8.165C13.4775 7.995 13.8458 7.5275 13.9025 7.00333C13.9379 6.67042 13.8671 6.35875 13.7042 6.10375L12.7975 4.53125C12.7658 4.47782 12.7207 4.43356 12.6666 4.40282C12.6126 4.37209 12.5515 4.35592 12.4894 4.35592C12.4272 4.35592 12.3661 4.37209 12.3121 4.40282C12.2581 4.43356 12.213 4.47782 12.1813 4.53125L11.2746 6.10375C11.1542 6.31625 11.0833 6.56417 11.0833 6.83333C11.0833 7.76833 12.0042 8.49792 12.9817 8.165ZM15.7087 15.2767L15.0004 14.5683L14.2354 15.3263C13.3146 16.2471 11.6996 16.2542 10.7717 15.3263L10.0137 14.5683L9.24167 15.3263C8.78125 15.7867 8.165 16.0417 7.51333 16.0417C6.99625 16.0417 6.52167 15.8788 6.125 15.6096V18.1667C6.125 18.9458 6.7625 19.5833 7.54167 19.5833H17.4583C18.2375 19.5833 18.875 18.9458 18.875 18.1667V15.6096C18.3438 15.9708 17.6637 16.1408 16.9342 15.9779C16.4667 15.8788 16.0487 15.6167 15.7087 15.2767ZM16.75 10.375H13.2083V9.66667C13.2083 9.27708 12.8896 8.95833 12.5 8.95833C12.1104 8.95833 11.7917 9.27708 11.7917 9.66667V10.375H8.25C7.07417 10.375 6.125 11.3242 6.125 12.5V13.5342C6.125 14.1363 6.47917 14.7171 7.05292 14.9083C7.57 15.0783 8.12958 14.9508 8.49083 14.5825L10.0067 13.0738L11.5154 14.5825C12.0537 15.1208 12.9392 15.1208 13.4775 14.5825L14.9933 13.0738L16.5021 14.5825C16.8067 14.8871 17.2317 15.0288 17.6708 14.9721C18.3721 14.88 18.8679 14.2213 18.8679 13.5129V12.5071C18.8704 12.2276 18.8175 11.9504 18.7121 11.6915C18.6068 11.4326 18.4511 11.1972 18.2541 10.9989C18.0571 10.8006 17.8227 10.6433 17.5646 10.5362C17.3064 10.4291 17.0295 10.3743 16.75 10.375Z" fill="#597EF7"/>
</svg>
