<svg width="25" height="25" viewBox="0 0 25 25" fill="none" xmlns="http://www.w3.org/2000/svg">
<circle cx="12.5" cy="12.5" r="12.5" fill="white" fill-opacity="0.7"/>
<path d="M8.25 7.1875C7.68641 7.1875 7.14591 7.41138 6.7474 7.8099C6.34888 8.20841 6.125 8.74891 6.125 9.3125V9.52606L12.5 12.959L18.875 9.52713V9.3125C18.875 8.74891 18.6511 8.20841 18.2526 7.8099C17.8541 7.41138 17.3136 7.1875 16.75 7.1875H8.25ZM18.875 10.7331L12.7518 14.03C12.6744 14.0717 12.5879 14.0935 12.5 14.0935C12.4121 14.0935 12.3256 14.0717 12.2482 14.03L6.125 10.7331V15.6875C6.125 16.2511 6.34888 16.7916 6.7474 17.1901C7.14591 17.5886 7.68641 17.8125 8.25 17.8125H16.75C17.3136 17.8125 17.8541 17.5886 18.2526 17.1901C18.6511 16.7916 18.875 16.2511 18.875 15.6875V10.7331Z" fill="#597EF7"/>
</svg>
