<svg width="28" height="28" viewBox="0 0 28 28" fill="none" xmlns="http://www.w3.org/2000/svg">
<path d="M15.354 1.39999C21.297 1.39999 26.209 5.98499 26.989 11.934C27.606 12.431 28 13.192 28 14.045V16.755C28 18.125 26.983 19.258 25.662 19.439C24.036 22.525 21.162 24.801 17.744 25.534C17.748 25.569 17.75 25.605 17.75 25.642C17.75 26.221 17.265 26.69 16.667 26.69H14.09C13.703 26.69 13.345 26.49 13.151 26.166C12.958 25.842 12.958 25.442 13.151 25.118C13.345 24.793 13.703 24.594 14.09 24.594H16.667C16.941 24.594 17.191 24.692 17.382 24.854C20.542 24.24 23.232 22.214 24.817 19.424C23.546 19.199 22.581 18.09 22.581 16.754V14.045C22.581 12.549 23.794 11.335 25.291 11.335L25.367 11.338C24.375 6.48999 20.254 2.87399 15.354 2.87399C9.952 2.87399 5.498 7.26899 5.139 12.864C5.313 13.216 5.413 13.612 5.419 14.03V16.77C5.395 18.265 4.189 19.465 2.709 19.465C1.23 19.465 0.024 18.265 0 16.77V14.03C0.024 12.535 1.23 11.335 2.71 11.335C3.088 11.335 3.45 11.415 3.777 11.556C4.71 5.79199 9.537 1.39999 15.354 1.39999ZM12.726 9.59399C13.295 9.59399 13.806 10.114 13.806 10.83V13.886C13.806 14.536 13.352 15.122 12.726 15.122C12.1 15.122 11.646 14.537 11.646 13.886V10.83C11.646 10.18 12.157 9.59399 12.726 9.59399ZM17.79 9.52899C18.36 9.52899 18.871 10.049 18.871 10.765V13.821C18.871 14.537 18.359 15.057 17.79 15.057C17.22 15.057 16.708 14.537 16.708 13.821V10.765C16.708 10.115 17.22 9.52899 17.79 9.52899Z" fill="white"/>
</svg>
