<svg width="16" height="16" viewBox="0 0 16 16" fill="none" xmlns="http://www.w3.org/2000/svg">
<circle cx="8" cy="8" r="8" fill="#B9C4D7"/>
<path d="M8.4502 4L8.36895 10.5312H7.3252L7.2377 4H8.4502ZM7.2002 12.5188C7.2002 12.3313 7.25645 12.1729 7.36895 12.0437C7.48561 11.9146 7.65645 11.85 7.88145 11.85C8.10228 11.85 8.27103 11.9146 8.3877 12.0437C8.50853 12.1729 8.56895 12.3313 8.56895 12.5188C8.56895 12.6979 8.50853 12.8521 8.3877 12.9812C8.27103 13.1104 8.10228 13.175 7.88145 13.175C7.65645 13.175 7.48561 13.1104 7.36895 12.9812C7.25645 12.8521 7.2002 12.6979 7.2002 12.5188Z" fill="white"/>
</svg>
