<svg width="25" height="25" viewBox="0 0 25 25" fill="none" xmlns="http://www.w3.org/2000/svg">
<path opacity="0.7" d="M12.5 25C19.4036 25 25 19.4036 25 12.5C25 5.59644 19.4036 0 12.5 0C5.59644 0 0 5.59644 0 12.5C0 19.4036 5.59644 25 12.5 25Z" fill="white"/>
<path fill-rule="evenodd" clip-rule="evenodd" d="M19 16.562C19 16.562 15.045 15.227 14.138 14.962L13.909 14.366C14.611 13.746 15.166 12.993 15.477 11.992C15.757 11.658 16.042 11.167 16.042 10.545C16.042 10.3 15.916 10.179 15.75 10.062C15.744 8.958 15.522 8.022 15.115 7.364C14.561 6.468 13.665 6 12.5 6C10.467 6 9.25 7.423 9.25 10.063V10.065C9.25 10.065 8.933 10.193 8.958 10.595C9 11.271 9.298 11.786 9.601 12.115C9.972 13.155 10.581 13.941 11.167 14.366L10.862 14.95C9.867 15.267 6 16.562 6 16.562V19H19V16.562Z" fill="#5A7EF8"/>
</svg>
