<svg width="25" height="25" viewBox="0 0 25 25" fill="none" xmlns="http://www.w3.org/2000/svg">
<path opacity="0.7" d="M12.5 25C19.4036 25 25 19.4036 25 12.5C25 5.59644 19.4036 0 12.5 0C5.59644 0 0 5.59644 0 12.5C0 19.4036 5.59644 25 12.5 25Z" fill="white"/>
<path fill-rule="evenodd" clip-rule="evenodd" d="M17.945 6.822C17.808 6.827 17.675 6.828 17.544 6.828C14.094 6.828 12.573 5.362 12.56 5.35L12.215 5L11.87 5.35C11.856 5.363 10.366 6.827 6.886 6.827C6.756 6.827 6.622 6.826 6.484 6.821L6 6.807V13.453C6 15.193 6.627 17.733 12.045 19.675L12.215 19.735L12.384 19.675C17.802 17.733 18.429 15.194 18.429 13.453V6.807L17.945 6.822ZM11.682 15.173L8.56 12.445L9.389 11.783L11.049 12.99C11.049 12.99 13.341 10.652 15.555 9.56L15.871 9.912C15.871 9.912 13.104 12.172 11.682 15.174V15.173Z" fill="#5A7EF8"/>
</svg>
