<svg width="18" height="18" viewBox="0 0 18 18" fill="none" xmlns="http://www.w3.org/2000/svg">
<path d="M0.599976 2.99961C0.599976 2.36309 0.852832 1.75264 1.30292 1.30255C1.75301 0.852466 2.36346 0.599609 2.99998 0.599609H11.4C12.0365 0.599609 12.6469 0.852466 13.097 1.30255C13.5471 1.75264 13.8 2.36309 13.8 2.99961V11.3996H17.4V13.7996C17.4 14.7544 17.0207 15.6701 16.3456 16.3452C15.6704 17.0203 14.7548 17.3996 13.8 17.3996H4.19998C3.2452 17.3996 2.32952 17.0203 1.65439 16.3452C0.97926 15.6701 0.599976 14.7544 0.599976 13.7996V2.99961ZM13.8 12.5996V16.1996C14.4365 16.1996 15.0469 15.9468 15.497 15.4967C15.9471 15.0466 16.2 14.4361 16.2 13.7996V12.5996H13.8ZM12.6 16.1996V2.99961C12.6 2.68135 12.4735 2.37613 12.2485 2.15108C12.0235 1.92604 11.7182 1.79961 11.4 1.79961H2.99998C2.68172 1.79961 2.37649 1.92604 2.15145 2.15108C1.9264 2.37613 1.79998 2.68135 1.79998 2.99961V13.7996C1.79998 14.4361 2.05283 15.0466 2.50292 15.4967C2.95301 15.9468 3.56346 16.1996 4.19998 16.1996H12.6ZM4.19998 4.79961C4.19998 4.64048 4.26319 4.48787 4.37571 4.37535C4.48823 4.26282 4.64085 4.19961 4.79998 4.19961H9.59998C9.75911 4.19961 9.91172 4.26282 10.0242 4.37535C10.1368 4.48787 10.2 4.64048 10.2 4.79961C10.2 4.95874 10.1368 5.11135 10.0242 5.22387C9.91172 5.3364 9.75911 5.39961 9.59998 5.39961H4.79998C4.64085 5.39961 4.48823 5.3364 4.37571 5.22387C4.26319 5.11135 4.19998 4.95874 4.19998 4.79961ZM4.19998 8.39961C4.19998 8.24048 4.26319 8.08787 4.37571 7.97535C4.48823 7.86282 4.64085 7.79961 4.79998 7.79961H9.59998C9.75911 7.79961 9.91172 7.86282 10.0242 7.97535C10.1368 8.08787 10.2 8.24048 10.2 8.39961C10.2 8.55874 10.1368 8.71135 10.0242 8.82387C9.91172 8.9364 9.75911 8.99961 9.59998 8.99961H4.79998C4.64085 8.99961 4.48823 8.9364 4.37571 8.82387C4.26319 8.71135 4.19998 8.55874 4.19998 8.39961ZM4.19998 11.9996C4.19998 11.8405 4.26319 11.6879 4.37571 11.5753C4.48823 11.4628 4.64085 11.3996 4.79998 11.3996H7.19998C7.35911 11.3996 7.51172 11.4628 7.62424 11.5753C7.73676 11.6879 7.79998 11.8405 7.79998 11.9996C7.79998 12.1587 7.73676 12.3114 7.62424 12.4239C7.51172 12.5364 7.35911 12.5996 7.19998 12.5996H4.79998C4.64085 12.5996 4.48823 12.5364 4.37571 12.4239C4.26319 12.3114 4.19998 12.1587 4.19998 11.9996Z" fill="black"/>
</svg>
