<svg width="23" height="19" viewBox="0 0 23 19" fill="none" xmlns="http://www.w3.org/2000/svg">
<g clip-path="url(#clip0_158_2289)">
<path d="M11.829 0.155985L5.914 3.80499H2.957C1.314 3.80499 0 5.07498 0 6.66098V12.373C0 13.96 1.314 15.229 2.957 15.229H5.914L11.829 18.879C12.65 19.196 13.307 18.879 13.307 18.085V0.949985C13.389 0.156985 12.65 -0.240015 11.829 0.156985V0.155985ZM16.839 4.75698C16.675 4.59798 16.511 4.51898 16.346 4.51898C16.182 4.51898 15.936 4.59898 15.854 4.67798C15.525 4.91598 15.525 5.39198 15.854 5.70898C16.018 5.86798 16.264 6.18498 16.511 6.66098C16.921 7.45398 17.168 8.40598 17.168 9.51698C17.168 10.627 16.921 11.58 16.511 12.373C16.264 12.849 16.018 13.166 15.854 13.325C15.607 13.484 15.607 13.642 15.607 13.801C15.607 13.96 15.689 14.198 15.854 14.277C16.018 14.436 16.182 14.515 16.346 14.436C16.511 14.436 16.757 14.356 16.839 14.198C17.086 13.96 17.414 13.563 17.743 12.928C18.236 11.897 18.564 10.786 18.564 9.43798C18.564 8.08898 18.236 6.97798 17.743 5.94698C17.414 5.39198 17.086 4.99498 16.839 4.75698ZM21.439 3.88399C20.864 2.93198 20.207 2.21798 19.796 1.90099C19.632 1.74198 19.468 1.74198 19.221 1.74198C19.057 1.74198 18.811 1.82199 18.729 1.97998C18.564 2.13898 18.564 2.29799 18.564 2.53598C18.564 2.69398 18.646 2.93199 18.811 3.01199C18.893 3.09099 19.057 3.16999 19.221 3.40798C19.55 3.80499 19.879 4.20198 20.125 4.67798C20.946 6.10598 21.521 7.77198 21.521 9.59598C21.521 11.421 21.029 13.087 20.125 14.515C19.796 14.991 19.468 15.467 19.221 15.785C19.057 16.022 18.893 16.102 18.811 16.181C18.482 16.419 18.482 16.895 18.729 17.212C18.975 17.53 19.468 17.53 19.796 17.292C20.207 16.895 20.864 16.26 21.439 15.308C22.425 13.722 23 11.818 23 9.67598C23 7.37498 22.425 5.47098 21.44 3.88399H21.439Z" fill="white"/>
</g>
<defs>
<clipPath id="clip0_158_2289">
<rect width="23" height="19" fill="white"/>
</clipPath>
</defs>
</svg>
