<svg width="25" height="25" viewBox="0 0 25 25" fill="none" xmlns="http://www.w3.org/2000/svg">
<path opacity="0.7" d="M12.5 25C19.4036 25 25 19.4036 25 12.5C25 5.59644 19.4036 0 12.5 0C5.59644 0 0 5.59644 0 12.5C0 19.4036 5.59644 25 12.5 25Z" fill="white"/>
<path fill-rule="evenodd" clip-rule="evenodd" d="M14.2119 8.487V10.237H10.6899L10.7119 8.487C10.7119 7.521 10.6189 6.737 11.5859 6.737H13.3359C14.3029 6.737 14.2109 7.521 14.2109 8.487H14.2119ZM13.3369 16.362H11.5869L12.1879 14.557C11.8419 14.441 11.5869 14.123 11.5869 13.737C11.5869 13.253 11.9779 12.862 12.4619 12.862C12.9459 12.862 13.3369 13.253 13.3369 13.737C13.3369 14.123 13.0819 14.441 12.7349 14.557L13.3369 16.362ZM15.9619 10.237V7.612C15.9619 6.162 14.7869 4.987 13.3369 4.987H11.5869C10.1369 4.987 8.96191 6.161 8.96191 7.612V10.237C8.08691 10.237 7.21191 11.021 7.21191 11.987V17.239C7.21191 18.204 7.99691 18.987 8.96391 18.987H15.9609C16.9279 18.987 17.7119 18.204 17.7119 17.239V11.987C17.7119 11.021 16.8369 10.237 15.9619 10.237Z" fill="#5A7EF8"/>
</svg>
