<svg width="25" height="25" viewBox="0 0 25 25" fill="none" xmlns="http://www.w3.org/2000/svg">
<circle cx="12.5" cy="12.5" r="12.5" fill="white" fill-opacity="0.7"/>
<path d="M7.8125 6.875C7.8125 6.37772 8.01004 5.90081 8.36167 5.54917C8.71331 5.19754 9.19022 5 9.6875 5H15.3125C15.8098 5 16.2867 5.19754 16.6383 5.54917C16.99 5.90081 17.1875 6.37772 17.1875 6.875V18.125C17.1875 18.6223 16.99 19.0992 16.6383 19.4508C16.2867 19.8025 15.8098 20 15.3125 20H9.6875C9.19022 20 8.71331 19.8025 8.36167 19.4508C8.01004 19.0992 7.8125 18.6223 7.8125 18.125V6.875ZM13.4375 17.1875C13.4375 16.9389 13.3387 16.7004 13.1629 16.5246C12.9871 16.3488 12.7486 16.25 12.5 16.25C12.2514 16.25 12.0129 16.3488 11.8371 16.5246C11.6613 16.7004 11.5625 16.9389 11.5625 17.1875C11.5625 17.4361 11.6613 17.6746 11.8371 17.8504C12.0129 18.0262 12.2514 18.125 12.5 18.125C12.7486 18.125 12.9871 18.0262 13.1629 17.8504C13.3387 17.6746 13.4375 17.4361 13.4375 17.1875Z" fill="#597EF7"/>
</svg>
